<mxfile host="app.diagrams.net" modified="2023-12-22T09:24:05.569Z" agent="Mozilla/5.0 (Windows NT 10.0; Win64; x64) AppleWebKit/537.36 (KHTML, like Gecko) Chrome/120.0.0.0 Safari/537.36" version="22.1.11" etag="CgUtLEk62rxhQGgYNw3K" type="github">
  <diagram name="Page-1" id="gn6U5mzQL6_PtywRC3x4">
    <mxGraphModel>
      <root>
        <mxCell id="0" />
        <mxCell id="1" parent="0" />
      </root>
    </mxGraphModel>
  </diagram>
</mxfile>
